<?xml version="1.0" encoding="UTF-8"?>
<svg id="Layer_1" xmlns="http://www.w3.org/2000/svg" version="1.1" viewBox="0 0 630.57 1024">
  <!-- Generator: Adobe Illustrator 30.4.0, SVG Export Plug-In . SVG Version: 2.1.4 Build 226)  -->
  <path d="M465.01,859.92H168.29c-23.74,0-46.26-11.41-59.93-28.73-13.92-17.63-20.03-39.02-20.04-61.89l-.19-321.77,1.96-26.97c7.68-80.75,53.97-140.67,131.17-166.46-1.83-38.49,20.89-71.54,56.77-84.17,23.7-7.35,47.8-7.86,71.71-.99,37.38,11.34,62,45.51,59.4,84.81,53.22,17.4,95.79,53.99,116.84,105.45,10.39,25.41,13.7,50.59,16.2,78.3l-.05,333.88c0,12.49-3.16,23.57-6.76,35.31-9.22,30.06-36.02,53.24-70.34,53.24h-.02ZM362.64,243.77l12.41.97c-1.37-17.19-11.3-33.84-27.75-40.7-18.18-7.58-38.87-7.76-57.5-2.38-19.9,5.74-32.3,22.92-33.44,43.27l14.08-1.1,92.2-.06ZM473.51,609.07l.71,168.36c.02,4.29,7.96,6.63,11.18,5.48,2.72-.97,6.79-5.07,6.79-8.97l-.23-170.51c-7-42.21-38.41-71.92-81.38-71.87l-190.95.23c-43.13.05-80.39,33.33-80.54,76.78l-.6,166.31c-.02,5.35,8.07,9.26,11.53,8.27,4.23-1.21,7.06-5.51,7.09-11.06l.77-164.17c.16-33.45,29.46-56.32,61.62-56.36l191.33-.24c32.79-.04,62.53,22.26,62.68,57.74h0Z"/>
  <path d="M611.34,737.05c.09,38.63-22.37,74.46-59.97,80.69,4.25-13.65,9.32-26.11,9.33-40.28l.18-224.73c30.78-.12,50.11,29.33,50.17,55.4l.29,128.93h0Z"/>
  <path d="M78.64,817.86c-33.78-4.97-59.45-42.28-59.41-74.56l.16-136.9c.03-23.86,20.93-53.37,49.8-53.44l.25,224.52c.02,14.22,5.31,26.51,9.2,40.39h0Z"/>
</svg>