<?xml version="1.0" encoding="UTF-8"?>
<svg id="Layer_1" xmlns="http://www.w3.org/2000/svg" version="1.1" viewBox="0 0 630.57 1024">
  <!-- Generator: Adobe Illustrator 30.4.0, SVG Export Plug-In . SVG Version: 2.1.4 Build 226)  -->
  <path d="M148.53,988.06c-20.27-2.26-37.24-15.9-44.38-31.91-8.44-18.93-7.43-42.16,5.98-57.76l80.89-94.1c5.91-6.88,8.41-17.92,11.6-26.29l21.31-55.9c19.78-13,32.72-31.76,35.57-55.2l23.77-102.27c18.7-27.36,35.65-53.76,51.21-82.66,22.61-45.63,18.96-104.41-25.67-129.13-34.33-19.01-74.86-3.45-94.07,31.26-23.1,44.44-44.24,87.93-64.81,133.86l-25.49,140.1-29.19-3.18c-18.6-2.03-35.65-6.69-50.86-17.98-18.59-13.8-31-35.83-28.18-60.19,5.73-49.46,12.71-97.36,21.01-146.35,8.5-50.13,41.41-91.71,91.58-102.93.8-15.53,4.61-29.37,15.8-39.07,19-16.47,48.4-14.17,64.83,4.88,9.52,11.03,11.25,24.48,9.73,40.57,18.69-15.2,39.06-21.45,62.12-22.9,6.48-.41,8.51-14.71,2.6-18.11-44.2-25.43-71.78-69.88-75.4-121.44-1.89-26.95,4.89-53.72,17.29-77.7,27.25-52.68,81.41-82.19,140.74-78.17,36.28,2.46,69.56,17.7,94.83,44.49,37.34,39.58,51.07,95.19,34.02,148.93-14.91,47-54.22,85.87-105.4,99.44-4.8,1.27-7.61,9.35-7.64,13.27-.05,5.26,2.53,11.89,6.91,15.71,20.38,17.8,34.28,39.44,44.15,64.43l11.35,37.65c6.14,20.37,19.53,37.56,29.97,56.24,3.97,7.09,10.64,12.93,17.79,16.64,26.47,13.74,53.02,24.16,80.76,34.71,20.56,7.81,31,30.63,25.59,50.39-5.43,19.82-26.12,35.77-47.49,30.89-20.4-4.65-39.26-11.69-58.93-18.48-16.12-5.56-31.08-13.05-46.77-20.97l-14.45,76.5c-1.34,7.1.76,13.37,4.67,18.97l51.98,74.38c7.73,11.07,12.9,22.61,16.86,35.63l39.54,130.07c5.59,18.4,3.91,37.8-7.36,54.08-9.27,13.39-26.37,24.22-45.27,25.18-29.2,1.49-51.93-18.63-60.73-45.58l-41.83-128.09-52.63-60.9c-7.53-8.72-35.61-30.07-36.31-26.5l-1.16,6,30.58,44.14-36.54,71.7-89.56,99.99c-14.32,15.98-31.33,26.26-54.87,23.64l-.04.02ZM196.83,330.21c.82-8.45.33-16.07-4.33-22.44-2.97-4.07-11.06-6.97-17.38-7.41-15.57-1.08-24.74,10.55-24.61,25.2l46.32,4.65h0Z"/>
  <path d="M236.18,675.34c-5.67,23.88-31.62,35.51-51.85,32.16-24.11-3.99-39.04-24.84-38.76-49.64,7.34-46,14.93-90.17,24.62-135.89l62.04-127.58c10.21-19.45,29.52-30.98,51.15-28.1,20.14,2.68,36.72,18.04,41.65,39.19,5.86,25.09,2.23,51.28-11.82,73.41l-48.54,76.44-28.49,120.01h0Z"/>
</svg>