<?xml version="1.0" encoding="UTF-8"?>
<svg id="Layer_1" xmlns="http://www.w3.org/2000/svg" version="1.1" viewBox="0 0 872.33 1024">
  <!-- Generator: Adobe Illustrator 30.4.0, SVG Export Plug-In . SVG Version: 2.1.4 Build 226)  -->
  <path d="M345.94,948.31c-40.62,34.68-101.26,30.38-136.95-7.95-30.37-32.61-35.12-79.97-13.91-118.44,27.66-50.17,89.57-66.68,138.57-37.26l63.91-69.98c-2.23-8.4-3.06-14.6-3.65-23.35l-75.69-.26c-53.43-.19-98.16-30.77-120.69-79.18-16.13-34.66-22.14-72.17-24.65-110.71-.46-7.03-.18-14.3,3.54-20.24,3.53-5.65,11.58-8.29,19.08-8.38l58.58-.72-124.02-172.7c-2.71-3.77-7.82-7.11-12.06-7.93l-68.24-13.19c-14.59-2.82-20.96-21.28-17.17-32.54,4.98-14.81,18.34-21.01,33.32-17.94l67.94,13.91c11.8,2.42,25.57,10.55,33.05,21.04l272.76,382.44c17.66-1.82,32.76,3.28,44.51,15.56,11.44,11.96,16.28,28.57,12.94,46.69l88.8,87.18c48.93-40.6,119.78-27.76,151.09,24.45,18.98,31.65,18.89,68.08,2.66,99.51-24.37,47.22-80.82,65.68-128.64,45.05-47.8-20.62-71.59-76.42-53.28-126.95l-94.27-91.33c-9.36,2.18-17.79,3.04-28.16,2.49l-67.17,71.82c24.46,43.5,15.85,96.44-22.2,128.92ZM331.26,871.08c0-27.31-22.14-49.45-49.46-49.45s-49.46,22.14-49.46,49.45,22.14,49.45,49.46,49.45,49.46-22.14,49.46-49.45ZM700.9,871.08c0-27.32-22.16-49.47-49.49-49.47s-49.49,22.15-49.49,49.47,22.16,49.47,49.49,49.47,49.49-22.15,49.49-49.47Z"/>
  <path d="M756.82,640.49c-25.3,32-60.97,50.77-101.55,50.74l-138.61-.11c-1.68-37.34-30.79-63.59-66.98-66.2l-106.85-152.31,438.76-.28c9.86.7,18.73,7.56,18.43,17.83-1.47,50.69-11.33,109.16-43.2,150.32Z"/>
  <path d="M782.02,450.21l-236-.06c-9.32,0-15.34-7.92-16.89-16.22l-51.99-277.86c-1.09-5.82,1.3-12.72,4.45-16.3,3.16-3.59,9.32-6.34,15.64-6.23,163.74,2.83,304.66,128.94,303.17,296.73-.1,10.91-6.56,19.94-18.37,19.93Z"/>
</svg>